<svg xmlns="http://www.w3.org/2000/svg" viewBox="0 0 448 512" fill="white">
  <path d="M135.2 17.7C140.1 7.4 150.7 0 162.5 0h123c11.8 0 22.4 7.4 27.3 17.7L328 32h88c13.3 0 24 10.7 24 24s-10.7 
  24-24 24h-16l-21.2 370.6c-1.5 25.9-23 45.4-48.9 45.4H118.1c-25.9 0-47.4-19.5-48.9-45.4L48 80H32C18.7 80 8 69.3 8 
  56S18.7 32 32 32h88l15.2-14.3zM176 192c-8.8 0-16 7.2-16 16v192c0 8.8 
  7.2 16 16 16s16-7.2 16-16V208c0-8.8-7.2-16-16-16zm96 
  0c-8.8 0-16 7.2-16 16v192c0 8.8 7.2 16 
  16 16s16-7.2 16-16V208c0-8.8-7.2-16-16-16z"></path>
</svg>
